<?xml version="1.0" encoding="utf-8"?><svg viewBox="0 0 800 800" xmlns="http://www.w3.org/2000/svg" xmlns:xlink="http://www.w3.org/1999/xlink"><style>:root>svg{display:none}:root>svg:target{display:block}</style><svg fill="currentColor" viewBox="0 0 32 32" id="dislike-finger" xmlns="http://www.w3.org/2000/svg"><path d="M12.982.007c9.088 0 9.159.377 10.284 1.225.597.449 1.723.76 5.838 1.028.299.019.583.134.773.365.087.107 2.143 3.105 2.143 7.907 0 4.732-1.471 6.89-1.534 6.991a1 1 0 01-.848.469c-3.378 0-8.062 4.313-11.211 11.841-.544 1.302-.657 2.158-2.657 2.158-1.137 0-2.412-.814-3.043-1.86-1.291-2.135-.636-6.721-.028-9.171-2.063.017-5.796.045-7.572.045-2.471 0-4.106-1.474-4.157-3.628-.016-.711.077-1.62.283-2.088-.543-.543-1.245-1.361-1.276-2.415-.038-1.36.852-2.395 1.42-2.989-.13-.396-.391-.92-.366-1.547.063-1.542 1.253-2.536 1.995-3.054-.061-.42-.109-1.217.026-1.832C3.587.995 7.19.007 12.98.007zm15.593 4.282c-3.584-.296-5.5-.698-6.51-1.459-.782-.588-.661-.822-9.082-.822-2.568 0-7.59.107-7.976 1.869-.154.705.59 1.398.593 1.403a1.014 1.014 0 01-.518 1.305c-.008.004-2.004.72-2.05 1.836-.03.713.46 1.142.471 1.159.291.452.184 1.072-.257 1.38-.005.004-1.299.788-1.267 1.857.025.848 1.143 1.447 1.177 1.466.25.143.432.39.489.674.057.282-.007.579-.182.807 0 0-.509.808-.49 1.566.037 1.623 1.782 1.674 2.156 1.674 2.522 0 9.001-.026 9.001-.026.35-.001.652.164.839.444s.202.627.091.945c-.976 2.814-1.522 7.227-.616 8.735.267.445.328.889 1.328.889.139 0 .468-.11.812-.93 3.343-7.994 8.334-12.619 12.423-13.036.352-.804 1.015-2.47 1.015-5.493-.001-3.085-.979-5.472-1.449-6.245z"/></svg><svg fill="currentColor" viewBox="0 0 32 32" id="like-finger" xmlns="http://www.w3.org/2000/svg"><path d="M19.017 31.992c-9.088 0-9.158-.377-10.284-1.224-.597-.449-1.723-.76-5.838-1.028-.298-.02-.583-.134-.773-.365-.087-.107-2.143-3.105-2.143-7.907 0-4.732 1.472-6.89 1.534-6.99a.997.997 0 01.847-.47c3.378 0 8.062-4.313 11.21-11.841.544-1.302.657-2.159 2.657-2.159 1.137 0 2.413.815 3.042 1.86 1.291 2.135.636 6.721.029 9.171 2.063-.017 5.796-.045 7.572-.045 2.471 0 4.107 1.473 4.156 3.627.017.711-.077 1.619-.282 2.089.544.543 1.245 1.36 1.276 2.414.038 1.36-.852 2.395-1.421 2.989.131.395.391.92.366 1.547-.063 1.542-1.253 2.535-1.994 3.054.061.422.11 1.218-.026 1.834-.535 2.457-4.137 3.443-9.928 3.443zm-15.591-4.28c3.584.297 5.5.698 6.51 1.459.782.589.662.822 9.081.822 2.568 0 7.59-.107 7.976-1.87.153-.705-.59-1.398-.593-1.403a1.013 1.013 0 01.518-1.305c.008-.004 2.005-.719 2.05-1.835.03-.713-.46-1.142-.471-1.16-.291-.452-.185-1.072.257-1.38.005-.004 1.299-.788 1.267-1.857-.024-.849-1.143-1.447-1.177-1.466a1.006 1.006 0 01-.306-1.482s.509-.808.49-1.566c-.037-1.623-1.782-1.674-2.156-1.674-2.523 0-9.001.025-9.001.025-.349.002-.652-.164-.84-.443s-.201-.627-.092-.944c.977-2.813 1.523-7.228.616-8.736-.267-.445-.328-.889-1.328-.889-.139 0-.468.11-.812.929-3.341 7.995-8.332 12.62-12.421 13.037-.353.804-1.016 2.47-1.016 5.493 0 3.085.977 5.473 1.447 6.245z"/></svg><svg fill="none" viewBox="0 0 48 50" id="search" xmlns="http://www.w3.org/2000/svg"><circle cx="20.5" cy="20.5" r="19" stroke="currentColor" stroke-width="5"/><path stroke="currentColor" stroke-width="5" d="M46.939 48.061l-13-13"/></svg><svg fill="none" viewBox="0 0 24 24" id="search-close" xmlns="http://www.w3.org/2000/svg"><path d="M12.71 12l8.15 8.15-.71.71L12 12.71l-8.15 8.15-.71-.71L11.29 12 3.15 3.85l.71-.71L12 11.29l8.15-8.15.71.71L12.71 12z" fill="currentColor"/></svg><svg fill="none" viewBox="0 0 30 26" id="sidebar-item-1" xmlns="http://www.w3.org/2000/svg"><path d="M.936 14.968c4.83-4.831 9.65-9.678 14.493-14.496 4.865 4.828 9.708 9.674 14.551 14.524.755.857.582 2.314-.449 2.868-.937.666-2.126.084-2.735-.755-.217 2.823-.04 5.71-.087 8.554-7.511-.037-15.025-.025-22.536-.003.022-2.85.028-5.7-.003-8.548-.409.106-.56.554-.916.737-.972.709-2.433.105-2.785-1.015-.028-.647-.124-1.427.467-1.866zm5.072.185c-.065 2.888-.03 5.788-.015 8.678 1.272.037 2.544.015 3.816.012.006-2.51.012-5.016-.003-7.526 1.231.01 2.466.022 3.7-.01-.008 1.161-.015 2.322.004 3.482-.505-.006-1.009-.034-1.513.003v.82c.504.032 1.008.007 1.513.004a111.81 111.81 0 00-.003 3.224c3.785.016 7.57.013 11.354.003.01-2.878 0-5.753.007-8.628-3.12-3.178-6.317-6.282-9.42-9.47-3.188 3.092-6.29 6.276-9.44 9.408z" fill="currentColor" fill-opacity=".75"/><path d="M17.26 16.37c1.266-.09 2.563-.047 3.835-.022a122.395 122.395 0 000 3.686c-1.275-.056-2.55-.006-3.825-.028 0-1.213.019-2.426-.01-3.636z" fill="currentColor" fill-opacity=".75"/></svg><svg fill="none" viewBox="0 0 30 27" id="sidebar-item-10" xmlns="http://www.w3.org/2000/svg"><path d="M1.43 1.686c.526-.39 1.22-.22 1.83-.254.816.038 1.657-.109 2.45.142.868.305 1.585 1.047 1.756 1.942.783 3.205 1.525 6.417 2.327 9.616 4.914.004 9.827-.004 14.742.004.343-.539.498-1.158.742-1.74.562-1.48 1.116-2.963 1.696-4.437.146-.402.327-.802.337-1.235-.224-.062-.45-.13-.684-.123-4.486.002-8.973-.001-13.46.002-.558.068-1.106-.47-1.016-1.017.034-.337.327-.58.588-.77 4.799.01 9.596.004 14.395.004.548-.02 1.05.28 1.448.624.492.518.692 1.26.597 1.956-.768 2.062-1.565 4.115-2.345 6.173-.271.576-.346 1.27-.848 1.716-.426.479-1.086.717-1.727.7-4.674.001-9.348-.003-14.023.003.085.499.22.988.359 1.476 4.383-.002 8.766.002 13.15-.003.548-.016 1.131.24 1.405.72.453.773-.014 1.969-.985 2.039-4.58.019-9.159.001-13.738.009-1.232.033-2.34-.916-2.571-2.081-1.018-4.26-2.068-8.514-3.059-12.781a9.587 9.587 0 01-.149-.174c-.884-.048-1.77.026-2.655-.031C1.41 4.115.995 3.62.827 3.108c-.044-.529.112-1.129.603-1.422zM10.259 20.27c1.188.017 2.377-.029 3.564.021.49.285.737.825.998 1.3.16.585.16 1.191.003 1.778-.333.855-1.027 1.59-1.95 1.833-1.524.517-3.35-.545-3.64-2.086-.267-1.04.189-2.174 1.025-2.845zm1.051 2.473c.177.17.32.392.554.494.273.083.516-.079.753-.183l.19-.34c-.007-.435-.353-.873-.83-.83-.422.08-.621.477-.667.859zM19.093 20.264c1.18.013 2.358.007 3.539.004.65.522 1.112 1.302 1.093 2.141.08.985-.487 1.972-1.338 2.486a3.052 3.052 0 01-2.476.29c-.76-.292-1.409-.826-1.742-1.565-.19-.611-.343-1.268-.102-1.89.125-.606.575-1.064 1.026-1.466zm1.437 1.613c-.155.155-.313.31-.47.462-.01.363.12.864.564.902.475.127.963-.36.827-.82-.05-.422-.55-.563-.92-.544z" fill="currentColor" fill-opacity=".75"/></svg><svg fill="none" viewBox="0 0 30 30" id="sidebar-item-11" xmlns="http://www.w3.org/2000/svg"><path d="M1.898.854c.995.314 2.207.351 2.872 1.274l-.184.39c3.025 3.05 6.072 6.077 9.095 9.13.338-.256.587-.766 1.026-.814.844.787 1.628 1.64 2.468 2.432.304-.315.618-.618.964-.884.998 1.045 1.987 2.105 3.079 3.054 1.936 1.949 3.878 3.894 5.817 5.842.544.636.948 1.463.867 2.325.087 1.189-.66 2.339-1.66 2.916-1.033.63-2.407.568-3.428-.05a21.874 21.874 0 01-2.261-2.188c-2.467-2.323-4.772-4.816-7.225-7.155.325-.313.662-.616.944-.97-.79-.903-1.735-1.662-2.505-2.585.284-.307.593-.588.898-.871A700.66 700.66 0 007.942 7.96C6.544 6.437 4.968 5.1 3.55 3.594l-.458.156c-.2-.213-.402-.424-.607-.632-.228-.745-.472-1.49-.586-2.264z" fill="currentColor" fill-opacity=".75"/><path d="M20.225 3.943c.645-1.702 2.422-2.706 4.171-2.78.607.076 1.211.177 1.8.345-.256.375-.6.671-.93.977-.878.851-1.706 1.756-2.585 2.607.784.896 1.74 1.613 2.55 2.482 1.199-1.153 2.343-2.362 3.52-3.537.531 1.372.433 2.973-.36 4.222-1.07 1.82-3.472 2.666-5.435 1.949-1.026 1.011-2.026 2.053-3.058 3.06-.061.006-.184.024-.245.031-.548-.47-1.014-1.025-1.534-1.528-.305.28-.587.59-.917.843-.52-.259-.886-.727-1.274-1.148 1.174-1.11 2.265-2.309 3.44-3.416.232-.23.476-.45.664-.717-.264-1.111-.346-2.344.193-3.39zM8.095 19.205c1.493-1.396 2.914-2.88 4.368-4.32.42.425.84.85 1.272 1.266-.328.321-.65.646-.965.98.58.51 1.086 1.097 1.66 1.613-1.063 1.207-2.256 2.293-3.384 3.438.565 1.662.093 3.64-1.185 4.839-1.275 1.308-3.342 1.649-5.003.946C6.037 26.78 7.263 25.63 8.4 24.395c-.775-.893-1.721-1.607-2.53-2.467-1.177 1.171-2.303 2.397-3.531 3.515-.616-1.49-.41-3.31.579-4.59 1.156-1.598 3.328-2.224 5.177-1.648z" fill="currentColor" fill-opacity=".75"/></svg><svg fill="none" viewBox="0 0 30 22" id="sidebar-item-12" xmlns="http://www.w3.org/2000/svg"><g clip-path="url(#hclip0_2_266)"><path d="M23.967.38c.464-.215.989-.2 1.484-.145.506.19.879.647 1.06 1.154.863 2.399 1.747 4.79 2.605 7.19.277.721.674 1.452.567 2.253.002.629-.51 1.102-1.056 1.295-.767.292-1.513.646-2.301.876-.556.147-1.126-.084-1.508-.499.053 1.177-1.032 2.196-2.184 2.015-.096.79-.548 1.513-1.242 1.886-.44.21-.935.13-1.402.133-.007 1.134-.948 2.004-1.993 2.201a2.209 2.209 0 01-1.315 1.97 3.095 3.095 0 01-1.54-.15c-.402.433-.804 1.015-1.454 1.022-.992.169-1.958-.547-2.275-1.485-.393.149-.823.116-1.23.076-.59-.149-1.021-.606-1.378-1.077a2.732 2.732 0 01-1.53.1c-.488-.1-.808-.518-1.134-.864-.38-.397-.376-.99-.355-1.508-.673.072-1.265-.377-1.675-.874-.366-.461-.342-1.07-.322-1.627-.023-.515.347-.92.614-1.318-.472.312-1.083.168-1.58-.012-.56-.21-1.13-.388-1.705-.546-.448-.119-.724-.524-1.038-.835-.045-.525-.117-1.066.04-1.579.15-.502.34-.993.49-1.496.524-1.918 1.247-3.774 1.783-5.689.156-.544.365-1.071.5-1.621.29-.329.568-.711.995-.857C4.422.297 4.974.33 5.474.545c.636.25 1.316.391 1.93.697.407.18.57.62.737 1.003.572.035 1.131-.084 1.694-.164l.192-.093c.509-.046 1.008-.187 1.522-.162.98-.031 1.94.293 2.773.802.85-.496 1.818-.846 2.81-.797 1.438.09 2.677.901 4.046 1.26-.09-.726.143-1.548.804-1.923.645-.304 1.333-.503 1.985-.788zM22.45 2.38c.037.22.069.44.134.654 1.022 2.904 2.13 5.776 3.151 8.68.973-.066 1.83-.627 2.752-.914a2.218 2.218 0 00-.125-.594c-.954-2.666-1.95-5.316-2.9-7.984-.109-.303-.205-.643-.489-.826-.852.296-1.697.62-2.523.984zM4.073 1.723c-.188.636-.41 1.26-.6 1.896-.441 1.607-1.052 3.16-1.491 4.766a39.5 39.5 0 01-.72 2.172c-.005.184-.008.369-.009.554.832.265 1.662.542 2.482.844.072-.046.217-.136.29-.18.04-.137.083-.274.127-.409a340.4 340.4 0 002.27-7.208c.182-.58.451-1.143.454-1.765-.791-.308-1.614-.524-2.396-.857l-.407.187zM7.934 3.58c-.528 1.893-1.187 3.746-1.78 5.619-.24.642-.335 1.33-.587 1.97.554-.362 1.237-.323 1.86-.245.678.342 1.188.984 1.423 1.713.534-.015 1.098.093 1.521.444.462.334.686.872.866 1.397.351.014.703.04 1.055.063.485.289.892.685 1.17 1.182.004.09.009.27.011.36l.154-.305c.229-.062.472-.244.708-.11.76.335 1.447.816 2.192 1.18.528.256 1.063.691 1.685.5.18-.163.311-.368.453-.563 0-.201.001-.403.004-.603-.297-.505-.876-.675-1.338-.975-.704-.434-1.525-.676-2.13-1.267l.013-.566c.12-.116.237-.232.357-.35.237.029.483.046.697.17 1.286.637 2.514 1.391 3.782 2.065.487.286.975-.141 1.294-.487-.027-.384-.024-.86-.39-1.088-1.33-.79-2.727-1.466-4.037-2.295.014-.293-.096-.68.183-.88.36-.198.782-.016 1.112.161 1.203.679 2.403 1.357 3.623 2.002.366.19.703.51 1.132.523.402.073.626-.414.614-.757.078-.535-.33-.953-.713-1.245-1.57-1.21-3.462-1.862-5.141-2.886-.331-.227-.756-.153-1.127-.107-1.339.314-2.578 1.115-3.992 1.055-1.111.052-2.07-.698-2.71-1.558-.017-.23-.076-.467-.003-.692.45-.789 1.139-1.387 1.758-2.03.502-.503.983-1.028 1.507-1.506a13.786 13.786 0 01-.823-.284c-1.493-.28-2.919.44-4.403.395zm6.37.598a20.946 20.946 0 00-3.119 3.14c.624.596 1.528.9 2.354.568.994-.268 1.904-.843 2.94-.939.046-.03.142-.093.188-.125.497 0 1.013.014 1.466.247 1.9 1.135 4.017 1.904 5.76 3.304-.743-2.042-1.486-4.082-2.213-6.13-.497 0-1.01.061-1.484-.125-.86-.294-1.7-.64-2.556-.942-.479-.015-.957-.014-1.436-.006-.662.27-1.331.558-1.9 1.008zM6.07 12.393c-.305.812-.901 1.488-1.107 2.337.027.492.469.758.883.889.272-.135.612-.224.735-.54.334-.706.786-1.35 1.041-2.094l-.146-.471c-.18-.153-.36-.311-.568-.422-.31-.057-.568.184-.838.301zm2.665 1.615c-.424.277-.573.796-.8 1.226-.228.516-.568.971-.796 1.488-.15.406-.024.847.236 1.177.405.188.803.102 1.155-.159a26.12 26.12 0 011.159-2.205c.219-.351.322-.825.137-1.21-.214-.394-.71-.43-1.091-.317zm2.255 1.91c-.475.575-.734 1.297-1.12 1.932-.026.378.047.822.436.982.27.236.594.088.89.01.385-.547.694-1.143.982-1.747.156-.284.11-.62.122-.933-.312-.397-.899-.635-1.31-.244zm1.569 3.19c-.244.687.688 1.628 1.289 1.046.409-.49.59-1.127.86-1.699-.197-.355-.536-.562-.904-.697-.665.15-.976.783-1.245 1.35zm3.29-1.219a5.291 5.291 0 01-.114 1.496c.255.027.513.026.77.03.133-.295.175-.615.182-.935-.275-.204-.559-.395-.837-.59z" fill="currentColor" fill-opacity=".75"/></g><defs><clipPath id="hclip0_2_266"><path fill="#fff" d="M0 0h30v21.892H0z"/></clipPath></defs></svg><svg fill="none" viewBox="0 0 30 28" id="sidebar-item-13" xmlns="http://www.w3.org/2000/svg"><g clip-path="url(#iclip0_2_277)" fill="currentColor" fill-opacity=".75"><path d="M3.684 3.747C3.684 1.9 5.261.16 7.15.131c6.447-.006 12.894-.006 19.34 0 1.92.039 3.559 1.847 3.444 3.744-.02.262-.324.37-.553.347l-5.945-.002c-.006 6.375 0 12.751-.002 19.126-.05.872-.345 1.747-.898 2.43-.603.709-1.456 1.233-2.4 1.311H3.08c-1.24-.117-2.365-.93-2.912-2.03-.097-.687-.018-1.387-.04-2.079 1.183-.002 2.367-.001 3.55-.001.013-6.41 0-12.82.007-19.23zm2.175-2.29c-.807.503-1.29 1.464-1.251 2.405.004 6.371-.008 12.742.005 19.114 3.948.002 7.894-.002 11.84.002.396-.026.517.436.491.749.1 1.634 1.932 2.885 3.497 2.373.93-.2 1.669-.962 1.949-1.851.175-.492.128-1.022.134-1.536 0-6.363.001-12.727.004-19.092.036-1.005.517-1.958 1.261-2.63C18.37.982 12.953.992 7.534.986c-.585.004-1.183.15-1.675.47zm19.52-.32c-1.02.264-1.687 1.19-1.945 2.163 1.799.044 3.6.01 5.4.018-.153-1.575-1.944-2.771-3.454-2.18zM.848 23.843c.167.866.677 1.667 1.458 2.106.434.136.876.29 1.338.276 4.55-.004 9.099 0 13.648-.001-.613-.566-1.082-1.304-1.219-2.133.009-.218-.192-.285-.375-.252-4.95.005-9.9-.002-14.85.004z"/><path d="M9.329 5.612c.015-1.267 1.172-2.439 2.468-2.348 1.19.011 2.383-.024 3.575.02.091.091.184.184.277.274.044.33.045.807-.364.897-1.165.056-2.336-.005-3.502.026-.569.023-1.178.462-1.17 1.066-.023 1.189-.006 2.378-.009 3.567-.026.469.243.934.673 1.134.329.101.675.146 1.02.138.923-.01 1.846 0 2.768-.004.458-.016.984-.147 1.234-.568.279-.543.137-1.169.178-1.751l.157-.265.265-.155.505.006c.14.164.317.329.341.556.06.864.004 1.826-.576 2.521-.438.488-1.057.858-1.73.863a765.92 765.92 0 01-3.774 0c-1.236.002-2.312-1.12-2.335-2.334a440.486 440.486 0 01-.001-3.643z"/><path d="M17.052 4.476c.346-.29.617-.835 1.15-.72.4.03.52.46.483.796a17.29 17.29 0 00-.568.605c-1.357 1.282-2.656 2.622-3.99 3.93-.224-.016-.504.08-.682-.1-.497-.466-.962-.967-1.464-1.428-.223-.205-.482-.506-.339-.83.042-.253.291-.35.485-.469.196.046.412.072.56.222.39.366.757.755 1.14 1.127 1.133-.98 2.14-2.1 3.225-3.133zM10.62 13.836c.55-.306 1.203-.191 1.806-.215.73.024 1.467-.05 2.192.039.363.152.322.562.308.882l-.301.29c-1.026.045-2.054-.011-3.08.032.636.795 1.423 1.462 2.138 2.187.993-.96 1.953-1.952 2.946-2.91.201-.004.402-.006.603-.004.174.228.344.469.322.771-.507.677-1.215 1.156-1.74 1.814-.416.404-.907.74-1.218 1.24a75.643 75.643 0 001.75 1.728c.016-.734-.01-1.47.01-2.203-.034-.33.318-.472.548-.617.377.043.776.289.735.72-.03.912.095 1.84-.121 2.737-.11.382-.352.705-.571 1.03-.512.372-1.098.714-1.754.699-1.172 0-2.346-.002-3.518 0-.275.01-.541-.062-.805-.129-.952-.29-1.657-1.2-1.674-2.193a537.02 537.02 0 01-.001-3.761c.005-.909.603-1.76 1.425-2.137zm-.15 1.812c.006 1.526-.015 3.051.011 4.575.777-.743 1.534-1.505 2.291-2.268-.75-.785-1.539-1.533-2.302-2.307zm1.227 5.117c1.329.031 2.66.029 3.988.005a10.71 10.71 0 00-.788-.755c-.346-.447-.825-.762-1.211-1.169-.693.61-1.33 1.276-1.989 1.919zM3.331 24.746c.12-.191.37-.115.558-.136 3.553.01 7.108-.01 10.66.01.3.02.263.354.268.569-.158.073-.325.137-.505.122-3.556-.006-7.113.004-10.67-.005-.31.063-.494-.343-.31-.56z"/></g><defs><clipPath id="iclip0_2_277"><path fill="#fff" d="M0 0h30v27.087H0z"/></clipPath></defs></svg><svg fill="none" viewBox="0 0 29 30" id="sidebar-item-14" xmlns="http://www.w3.org/2000/svg"><g clip-path="url(#jclip0_2_288)"><path d="M11.194 1.268C12.904.496 14.94.353 16.76.881c2.74.73 4.912 2.913 5.481 5.44.147.913.188 1.834.188 2.757.69.263 1.293.815 1.449 1.49.047 1.619.08 3.236 0 4.855-.06.547-.682.883-.697 1.443-.12.885-.432 1.808-1.199 2.414-.804.771-1.988 1.024-3.085 1.263-.13.742.61 1.219 1.147 1.65 2.063 1.42 4.433 2.425 6.827 3.297.448.163.922.356 1.177.75.517.612.363 1.439.21 2.139-.297.56-.936 1.08-1.668 1.017-7.477-.01-14.954.004-22.43-.007-.87-.044-1.762.02-2.61-.187-.618-.392-.99-1.065-.873-1.753-.117-.738.327-1.491 1.083-1.792 1.833-.684 3.656-1.407 5.366-2.319.99-.53 1.986-1.103 2.737-1.903.377-.362.398-.904.322-1.368-.196-.301-.48-.543-.728-.808-.603-.671-1.12-1.412-1.447-2.228-.599-.051-1.26.02-1.771-.33-.57-.386-1.153-.943-1.102-1.634.01-1.458-.004-2.915.006-4.373.128-.721.754-1.287 1.45-1.611.031-.968.053-1.943.264-2.896.512-2.13 2.203-3.947 4.337-4.919zm2.165.598c-1.607.268-3.127 1.065-4.08 2.277-.788.956-1.265 2.144-1.218 3.342.289-.364.379-.818.642-1.196.816-1.284 2.341-2.091 3.923-2.36 1.63-.187 3.332-.225 4.906.26 1.052.311 1.956.957 2.618 1.751.373.495.57 1.073.883 1.598.001-2.08-1.341-4.106-3.387-5.06-1.301-.638-2.837-.8-4.287-.612zM12.58 5.16c-1.294.184-2.486.975-2.967 2.091-.511.957-.358 2.045-.416 3.074.031 2.058-.08 4.122.066 6.176.383 1.172 1.304 2.123 2.231 2.98.015.614.09 1.237-.025 1.845-.406.969-1.387 1.587-2.263 2.192-2.094 1.331-4.411 2.346-6.777 3.215-.612.165-.413.87-.408 1.305.593.172 1.251.127 1.873.144 7.205.014 14.411.014 21.617-.001.5.002.997-.061 1.494-.1a5.747 5.747 0 00-.021-1.216c-2.754-1.025-5.522-2.134-7.858-3.837-.746-.62-1.67-1.31-1.64-2.317-.36.002-.718.02-1.075.05-.42.5-1.004 1.05-1.766.965-.711-.125-1.368-.575-1.58-1.217-.282-.974.75-2.026 1.845-1.927.64.001 1.103.477 1.48.888.393.005.792.052 1.178-.02.755-.679 1.486-1.406 1.962-2.277.146-.284.373-.56.342-.89-.012-1.624.014-3.248-.013-4.87-.12-1.101.025-2.211-.097-3.31-.195-.879-.666-1.767-1.5-2.288-1.677-.965-3.787-.942-5.682-.655zm-5.98 5.324c-.173.414-.169.861-.163 1.297.021 1.245-.067 2.5.153 3.734.302.297.8.244 1.205.291.018-1.876.011-3.751.004-5.628-.404.032-.922-.016-1.2.306zm14.703-.314a293.797 293.797 0 00-.001 5.656c.455-.015.93-.096 1.255-.408.037-1.374.027-2.748.02-4.121-.023-.32.04-.678-.188-.953-.347-.114-.72-.151-1.086-.174zm-.169 6.881c-.146.127-.201.313-.295.47-.263.552-.669 1.032-.988 1.555 1.02-.249 1.83-1.083 1.906-2.045-.208.003-.416 0-.623.02zm-6.704 2.81c-.07.198-.013.407.003.608.21-.002.445.07.638-.029.136-.163.077-.393.03-.576-.211-.081-.457-.065-.67-.003z" fill="currentColor" fill-opacity=".75"/></g><defs><clipPath id="jclip0_2_288"><path fill="#fff" d="M0 0h29v30H0z"/></clipPath></defs></svg><svg fill="none" viewBox="0 0 30 30" id="sidebar-item-15" xmlns="http://www.w3.org/2000/svg"><path d="M22.861 2.712a8.494 8.494 0 013.036-.716c.55-.007 1.1-.005 1.65-.002.276-.007.45.279.45.529.005 2.337-.002 4.675.003 7.013.361.095.719.229 1.01.468.597.437.93 1.157.99 1.883v.145c-.024.48-.164.958-.44 1.355-.357.538-.935.905-1.56 1.048-.005 2.338.003 4.676-.003 7.013.017.287-.224.553-.517.54-1.057.017-2.13.02-3.164-.24-1.108-.244-2.11-.796-3.131-1.269-1.354-.64-2.704-1.286-4.06-1.92a11.745 11.745 0 00-5.142-1.07c-.004 1.162.005 2.325-.004 3.488a.5.5 0 01-.455.506c-.37.022-.742.001-1.112.009.151 1.61.308 3.218.458 4.826.055.491-.14 1.001-.52 1.318a1.548 1.548 0 01-1.03.362c-.899.003-1.798 0-2.698.001-.31.005-.63-.047-.9-.21a1.521 1.521 0 01-.744-1.363c-.002-2.987-.001-5.975-.001-8.963a5.62 5.62 0 01-2.251-.732 5.515 5.515 0 01-2.54-3.336 5.508 5.508 0 01.15-3.28 5.414 5.414 0 012.175-2.74c.899-.599 1.98-.89 3.055-.894 1.952-.006 3.905-.001 5.858-.003 1.013.01 2.032-.013 3.026-.22a12.33 12.33 0 003.113-1.052 945.472 945.472 0 003.662-1.736c.55-.243 1.08-.53 1.636-.758zm3.135.28v17.983c.332.024.667.013 1 .017.002-6.006.002-12.013 0-18.018-.333.002-.668-.01-1 .018zm-2.62.576c-1.63.743-3.239 1.532-4.863 2.287-1.01.505-2.058.948-3.156 1.22-1.101.286-2.24.393-3.374.404v9.007c1.945-.018 3.9.377 5.66 1.213 1.645.77 3.283 1.558 4.928 2.33.765.385 1.573.708 2.424.837V3.099c-.553.098-1.099.255-1.62.469zM1.455 9.957c-.427.815-.56 1.766-.437 2.673.127.9.541 1.756 1.161 2.42a4.527 4.527 0 002.217 1.309c.479.125.977.13 1.468.127h5.117V7.479c-1.862.003-3.725-.006-5.588.005-1.639.001-3.217 1.007-3.938 2.474zM28 10.568c-.002.944-.002 1.888 0 2.831.594-.21 1.02-.815.997-1.448A1.513 1.513 0 0028 10.568zM5.981 17.486c-.01 2.982-.003 5.964-.003 8.945-.024.28.193.56.483.562.911.013 1.824 0 2.736.006.187.004.4-.008.535-.157.144-.135.155-.344.133-.528-.284-2.941-.557-5.884-.841-8.825-1.014-.001-2.028.005-3.043-.003zm4.05.003c.094 1.001.19 2.003.286 3.003h.665l.001-3c-.317-.006-.634-.001-.952-.003z" fill="currentColor" fill-opacity=".75"/></svg><svg fill="none" viewBox="0 0 30 30" id="sidebar-item-2" xmlns="http://www.w3.org/2000/svg"><path d="M11.742 3.081c1.563-1.122 3.582-.972 5.394-.795 1.833.435 3.216 1.851 4.224 3.372.564 1.659.51 3.462.099 5.148-.726 1.188-1.617 2.286-2.796 3.051-.468.171-.942.333-1.422.48l-.006.21c-1.452.033-2.982.252-4.356-.342-1.929-.702-3.486-2.397-3.834-4.443l-.219-.009c-.333-2.532.615-5.358 2.916-6.672zM6.186 18.465c1.371-1.491 3.147-2.451 4.953-3.306.693.237 1.38.498 2.061.768a9.12 9.12 0 003.282.351c.861-.357 1.857-.456 2.574-1.101.468.12.933.255 1.395.396 2.289.951 4.167 2.685 5.364 4.848.657 1.698 1.05 3.576.615 5.376-.552 1.2-1.896 1.671-3.012 2.196-1.311.222-2.589.69-3.936.678-3.393.048-6.795.099-10.188-.075a54.382 54.382 0 00-2.379-.627 34.55 34.55 0 00-1.26-.603c-.375-.279-.756-.552-1.098-.873-.225-1.212-.351-2.46-.165-3.684.177-1.557 1.116-2.856 1.749-4.248l.045-.096z" fill="currentColor" fill-opacity=".75"/><path opacity=".6" d="M3.939 22.986c.345-1.623.945-3.279 2.202-4.425-.633 1.392-1.572 2.691-1.749 4.248-.186 1.224-.06 2.472.165 3.684-.894-.945-.852-2.316-.618-3.507z" fill="currentColor" fill-opacity=".75"/></svg><svg fill="none" viewBox="0 0 30 30" id="sidebar-item-3" xmlns="http://www.w3.org/2000/svg"><path d="M11.742 3.081c1.563-1.122 3.582-.972 5.394-.795 1.833.435 3.216 1.851 4.224 3.372.564 1.659.51 3.462.099 5.148-.726 1.188-1.617 2.286-2.796 3.051-.468.171-.942.333-1.422.48l-.006.21c-1.452.033-2.982.252-4.356-.342-1.929-.702-3.486-2.397-3.834-4.443l-.219-.009c-.333-2.532.615-5.358 2.916-6.672zM6.186 18.465c1.371-1.491 3.147-2.451 4.953-3.306.693.237 1.38.498 2.061.768a9.12 9.12 0 003.282.351c.861-.357 1.857-.456 2.574-1.101.468.12.933.255 1.395.396 2.289.951 4.167 2.685 5.364 4.848.657 1.698 1.05 3.576.615 5.376-.552 1.2-1.896 1.671-3.012 2.196-1.311.222-2.589.69-3.936.678-3.393.048-6.795.099-10.188-.075a54.382 54.382 0 00-2.379-.627 34.55 34.55 0 00-1.26-.603c-.375-.279-.756-.552-1.098-.873-.225-1.212-.351-2.46-.165-3.684.177-1.557 1.116-2.856 1.749-4.248l.045-.096z" fill="currentColor" fill-opacity=".75"/><path opacity=".6" d="M3.939 22.986c.345-1.623.945-3.279 2.202-4.425-.633 1.392-1.572 2.691-1.749 4.248-.186 1.224-.06 2.472.165 3.684-.894-.945-.852-2.316-.618-3.507z" fill="currentColor" fill-opacity=".75"/></svg><svg fill="none" viewBox="0 0 30 24" id="sidebar-item-4" xmlns="http://www.w3.org/2000/svg"><path d="M4.598.383c.126.012.247-.031.372-.03.575.003 1.15 0 1.726.002.133.02.267.037.403.028 1.416.107 2.823.392 4.165.865 1.375.462 2.677 1.12 3.904 1.894a17.836 17.836 0 014.202-2.005 16.01 16.01 0 013.637-.736c.151-.036.308 0 .46-.034a.807.807 0 01.154-.013h1.782a.8.8 0 01.153.013c.15.035.308-.002.46.034.565.044 1.129.13 1.684.247l.05.047c-.008.165.037.326.035.492.032.16.015.326.049.487-.007.169.038.333.034.5.174.002.348 0 .523 0 .097 0 .19.034.287.03l1.088-.001.054.053v1.5c-.003.107.034.21.03.318-.003 1.021 0 2.042-.002 3.063-.01.146.041.287.03.433v9.245c.01.127-.02.25-.03.376 0 1.59.002 3.18 0 4.769-.041.21-.024.424-.03.636.008.046-.042.051-.074.048h-5.518c-.088 0-.173.03-.26.03-5.825-.002-11.649 0-17.472-.001-.211-.003-.423.014-.63-.027-1.755-.004-3.509-.001-5.263-.002-.029 0-.087-.001-.075-.048-.003-.56 0-1.12-.001-1.68-.001-.087-.03-.171-.029-.259.001-1.53-.001-3.062.001-4.593.01-.117-.027-.23-.03-.347V8.06c0-.097.033-.191.03-.289-.002-1.06 0-2.12-.002-3.18-.004-.106.033-.21.03-.316V2.54c-.001-.111.021-.221.04-.33.396-.02.794.004 1.191-.012.237-.047.479-.016.718-.024.052-.148.022-.304.042-.456.035-.156.007-.319.045-.475-.006-.184.044-.364.033-.549l.051-.047a13.3 13.3 0 011.55-.235c.135.003.267-.041.403-.03zm.633 1.687c-.35.002-.697.052-1.043.095v4.077c0 .097-.033.19-.03.288.002.847 0 1.694.002 2.541.002.127-.04.25-.03.376.002 1.272 0 2.543 0 3.815 0 .054-.007.107-.016.16.024.119.016.24.016.36v2.629c-.004.088.024.173.028.26.006.366-.006.733.005 1.099.034.154.025.312.024.469.299.004.598-.009.897.006.228.053.465-.007.694.044.98.054 1.954.218 2.915.42 1.926.417 3.792 1.069 5.625 1.79.001-1.526-.002-3.054.001-4.58.042-.229.025-.461.028-.692v-7.31c-.008-.117-.04-.23-.03-.348.003-.898-.001-1.796.002-2.694-.489-.353-1.017-.645-1.543-.938-.38-.188-.754-.388-1.145-.55a15.751 15.751 0 00-5.225-1.315c-.174.018-.343-.04-.517-.029-.22.007-.441-.018-.658.027zm18.994.04c-.157.04-.32.002-.479.036-1.948.16-3.887.623-5.653 1.48-.217.078-.404.215-.612.312-.295.162-.59.327-.868.518-.197.109-.37.255-.558.377l.001.917c.005.107-.032.21-.03.317.002 1.503 0 3.005.002 4.507.004.098-.027.192-.03.29v5.548c-.004.097.03.191.029.288v3.8c.713-.281 1.43-.551 2.155-.797.288-.12.593-.193.887-.295.551-.18 1.11-.335 1.669-.485 1.263-.314 2.55-.56 3.85-.637.222-.046.453.011.675-.041.298-.014.596-.002.894-.006 0-.129-.008-.259.021-.385.03-.326-.024-.657.035-.98.006-.414-.004-.829.005-1.242.04-.19.023-.384.025-.577l.001-3.672c.002-.107-.035-.21-.03-.315.002-.627 0-1.254 0-1.881.018-.185-.04-.365-.029-.55.002-.606 0-1.212.002-1.818.003-.097-.03-.19-.03-.288V2.13c-.128.001-.258.008-.384-.02-.257-.024-.516.007-.773-.017-.258.024-.517-.008-.775.016zM2.147 3.891v17.12c1.708.001 3.415 0 5.122.002.295.05.595.018.892.028.126.01.248-.033.374-.03.601.002 1.204 0 1.805 0-1.457-.485-2.962-.843-4.493-.978-.146-.034-.298-.005-.445-.04-.181-.022-.366.011-.546-.033-.229-.004-.461-.02-.688.022-.159.012-.32-.014-.476.023-.129.012-.259.007-.386.034-.234.004-.47.01-.703-.003-.019-.1-.007-.203-.009-.304V3.858a1.503 1.503 0 01-.447.034zm25.69 0v6.394c.003.097.034.192.03.29-.002.52 0 1.04-.002 1.56-.002.106.035.21.03.316-.003.222.005.444-.004.667-.065.361.015.733-.052 1.095-.004 1.08 0 2.159-.002 3.239-.003.154.013.31-.02.463-.032.431.026.868-.037 1.296-.008.167.016.337-.018.502-.02.106-.003.215-.018.322-.128.017-.258.004-.387.008-.148-.004-.297.013-.442-.018-.104-.02-.212-.003-.316-.024-.19-.04-.385.008-.574-.034-.295-.048-.588.036-.883.017-.136-.01-.266.038-.401.03a19.084 19.084 0 00-4.707.998h8.192V3.893h-.389z" fill="currentColor" fill-opacity=".75"/></svg><svg fill="none" viewBox="0 0 30 23" id="sidebar-item-5" xmlns="http://www.w3.org/2000/svg"><path d="M8.363.631c1.058-.175 2.171.185 2.982.886.807.714 1.243 1.8 1.248 2.878.025.247-.254.317-.39.464-.64.667-1.123 1.51-1.287 2.436-.013.202-.208.297-.363.378-.76.378-1.652.507-2.477.294a3.667 3.667 0 01-2.451-1.965c-.668-1.319-.465-3.054.544-4.139C6.71 1.188 7.528.779 8.363.631zM19.299 1.263c.91-.678 2.15-.853 3.218-.491.599.169 1.094.566 1.548.98 1.329 1.389 1.338 3.862-.072 5.194-1.028 1.142-2.784 1.42-4.149.778-.174-1.4-.954-2.705-2.14-3.451.037-1.181.614-2.354 1.595-3.01zM14.904 4.453c.673-.108 1.355.073 1.978.324 1.229.553 2.069 1.853 2.127 3.212a3.842 3.842 0 01-1.29 3.034c-.722.572-1.635.95-2.564.882a3.846 3.846 0 01-2.375-1.034 3.891 3.891 0 01-1.127-2.886c.063-1.301.838-2.532 1.976-3.13.395-.219.84-.308 1.275-.402zM2.672 12.707c.113-2.151 1.857-4.068 3.956-4.36 1.072-.11 2.152-.057 3.228-.071.322-.008.643.013.962.06a4.809 4.809 0 001.395 3.155c-1.254.43-2.397 1.245-3.099 2.4a5.522 5.522 0 00-.865 3.1c-.02.37.06.754-.064 1.111-1.872-.17-3.755-.474-5.524-1.136.023-1.42 0-2.84.011-4.26zM19.833 8.327c.25-.068.507-.053.763-.051 1.098.015 2.2-.048 3.293.099 1.132.267 2.199.92 2.866 1.899.595.826.916 1.86.883 2.884-.003 1.258-.005 2.516 0 3.773-.687.382-1.444.598-2.198.791-.996.215-2.009.39-3.03.378-.037-.942.098-1.918-.231-2.821-.507-1.802-1.983-3.222-3.725-3.783.82-.833 1.368-1.98 1.38-3.169z" fill="currentColor" fill-opacity=".75"/><path d="M10.965 13.075c.678-.495 1.478-.833 2.31-.92 1.37-.008 2.741-.008 4.112 0a4.728 4.728 0 013.387 2.06c.527.817.844 1.793.807 2.775-.002 1.264.002 2.529-.002 3.794-.985.498-2.062.803-3.15.948-1.288.28-2.618.192-3.926.193-1.839-.112-3.649-.524-5.409-1.067-.011-1.327-.002-2.653-.004-3.98-.02-1.475.711-2.928 1.875-3.803z" fill="currentColor" fill-opacity=".75"/></svg><svg fill="none" viewBox="0 0 28 29" id="sidebar-item-6" xmlns="http://www.w3.org/2000/svg"><g clip-path="url(#pclip0_2_200)" fill="currentColor" fill-opacity=".75"><path d="M1.892 1.072A3.94 3.94 0 014.276.147h14.68c.986.013 1.752 1.148 1.398 2.123-.21.727-.952 1.133-1.644 1.123-4.769-.005-9.538-.001-14.307-.002a.837.837 0 00-.768.413c-.17.274-.106.612-.117.92.005 6.646-.004 13.293.003 19.939 0 .47.442.85.882.811 6.48-.003 12.958.004 19.437-.004.47.032.853-.466.86-.929-.002-2.944-.001-5.888-.001-8.832-.028-.66.424-1.243.986-1.49.422-.042.898-.127 1.277.128.482.242.805.797.784 1.356 0 3.028.002 6.056-.002 9.084-.052 2.056-1.802 3.862-3.768 3.926-6.527.008-13.053-.002-19.58.006-1.142-.003-2.259-.553-3.01-1.445a4.603 4.603 0 01-.982-2.61C.402 17.847.404 11.03.402 4.212c.01-.452.136-.89.248-1.325.293-.687.66-1.35 1.242-1.815z"/><path d="M23.762 5.274c.346-.295.835-.432 1.272-.31.58.122 1.03.65 1.185 1.23.12.551-.079 1.152-.458 1.544-.51.534-1.01 1.076-1.524 1.606-1.371 1.597-2.88 3.06-4.266 4.64a389.823 389.823 0 01-3.8 4.055c-.363.467-.755.977-1.333 1.15-.576.196-1.233-.082-1.6-.561-.81-.902-1.69-1.739-2.444-2.696-.445-.524-1.111-.941-1.187-1.703-.173-1.022.782-1.971 1.75-1.807.616.082 1.014.613 1.404 1.061.537.626 1.108 1.219 1.673 1.818.707-.74 1.395-1.5 2.11-2.232.62-.796 1.363-1.474 2.031-2.224 1.737-1.851 3.418-3.753 5.187-5.571z"/></g><defs><clipPath id="pclip0_2_200"><path fill="#fff" d="M0 0h28v29H0z"/></clipPath></defs></svg><svg fill="none" viewBox="0 0 29 30" id="sidebar-item-7" xmlns="http://www.w3.org/2000/svg"><g clip-path="url(#qclip0_2_208)"><path d="M1.406.179C1.786.107 2.181.15 2.568.14c8.005.002 16.01.002 24.014 0 .38.01.772-.036 1.145.04.291.23.702.476.65.865 0 9.258-.002 18.516 0 27.772.037.444-.324.86-.8.996-.436.175-.785-.214-1.155-.35-3.51-1.856-7.042-3.678-10.558-5.523-.447-.198-.86-.5-1.36-.576-.76.207-1.37.693-2.075 1.007-3.415 1.812-6.87 3.569-10.277 5.39-.448.266-1.028-.042-1.273-.394-.341-.436-.211-.98-.233-1.475C.648 19.034.65 10.175.645 1.314A1.259 1.259 0 011.406.18zM2.95 2.042c-.012 1.574-.023 3.147.004 4.72 7.722.046 15.444.001 23.166.022.042-1.583.001-3.175.013-4.76-7.727.031-15.456-.007-23.183.018zm-.02 6.662c.026 5.695.002 11.39.012 17.085.01.41-.036.818-.092 1.223.725-.034 1.246-.525 1.88-.767 3.145-1.596 6.233-3.273 9.364-4.891a1.792 1.792 0 011.503.32c3.063 1.525 6.03 3.19 9.092 4.718.467.323 1.008.586 1.616.604-.282-1.043-.139-2.118-.172-3.18.021-5.045-.042-10.091.035-15.136-7.312-.02-14.625 0-21.937-.01-.434-.003-.869.005-1.3.034z" fill="currentColor" fill-opacity=".75"/></g><defs><clipPath id="qclip0_2_208"><path fill="#fff" d="M0 0h29v30H0z"/></clipPath></defs></svg><svg fill="none" viewBox="0 0 30 29" id="sidebar-item-8" xmlns="http://www.w3.org/2000/svg"><path d="M22.503.854c1.968 1.148 3.913 2.339 5.86 3.522a50.724 50.724 0 01-1.114 1.875c-1.413-.841-2.815-1.701-4.231-2.536-.636.716-1.204 1.487-1.825 2.215-.15.221-.4.42-.38.71.006.575-.047 1.158.036 1.726.688.912 1.436 1.778 2.15 2.669 1.44-.796 2.813-1.705 4.245-2.514.378.62.797 1.219 1.116 1.871-1.959 1.166-3.898 2.371-5.87 3.513-.726-.94-1.517-1.826-2.238-2.767-.19-.191-.341-.518-.657-.49-1.046-.015-2.092.002-3.137.002-.143-.74-.094-1.492-.03-2.236-.105-.677-.06-1.357 0-2.035-.113-.755-.055-1.516.027-2.271 1.13-.004 2.26.022 3.389-.01.896-1.075 1.763-2.17 2.659-3.244zM5.952 3.067c1.363-.183 2.8.308 3.738 1.31 1.466 1.438 1.643 3.968.36 5.574-.866 1.202-2.387 1.886-3.87 1.783-1.06-.12-2.09-.585-2.835-1.351C2.574 9.565 2.09 8.45 2.186 7.32c-.113-2.11 1.69-4.002 3.766-4.253zm-.145 2.272c-.834.277-1.474 1.097-1.45 1.98-.087 1.184 1.035 2.272 2.221 2.22 1.156.003 2.217-1.061 2.117-2.22.037-1.404-1.569-2.491-2.888-1.98zM11.801 5.186c1.169.005 2.336-.007 3.503.005.017 1.464.017 2.927.002 4.392-1.168 0-2.336-.002-3.503 0a5.823 5.823 0 00-.002-4.397z" fill="currentColor" fill-opacity=".75"/><path d="M5.958 6.32c.623-.313 1.452-.033 1.684.634.284.56-.075 1.224-.58 1.52-.463.14-1.043.116-1.398-.253-.542-.535-.42-1.566.294-1.902zM6.303 13.196c1.652.194 3.337-.513 4.412-1.753 1.478 2.447 2.907 4.923 4.373 7.378.976 1.61 1.882 3.269 2.901 4.85 2.033.021 4.07-.059 6.1.04-.004 1.078.012 2.157-.008 3.235H4.37c-.102-1.083-.036-2.177-.033-3.263 1.964-.027 3.929-.018 5.895-.004-1.176-2.128-2.494-4.175-3.7-6.286-1.092-1.81-2.16-3.632-3.239-5.451.89.637 1.888 1.193 3.01 1.254z" fill="currentColor" fill-opacity=".75"/></svg><svg fill="none" viewBox="0 0 24 30" id="sidebar-item-9" xmlns="http://www.w3.org/2000/svg"><g clip-path="url(#sclip0_2_224)" fill="currentColor" fill-opacity=".75"><path d="M3.642 0h16.049c.74.125 1.454.431 2.037.908a3.961 3.961 0 011.394 2.646c.03.396.037.794.04 1.192a11823.6 11823.6 0 000 20.802c.026.911-.126 1.869-.645 2.636-.608.997-1.697 1.631-2.833 1.816H3.649c-1.133-.186-2.227-.818-2.831-1.817-.516-.748-.66-1.685-.646-2.576.007-7.033.003-14.065.001-21.096C.16 3.58.285 2.6.817 1.816 1.422.821 2.511.19 3.642 0zm.35 1.2c-1.453.038-2.696 1.383-2.589 2.842-.012 7.031.008 14.063-.009 21.095.015.67-.073 1.378.22 2.006.403 1.032 1.5 1.687 2.585 1.684 4.667.006 9.334-.005 14.001.005.729-.009 1.489.021 2.171-.283.91-.426 1.583-1.393 1.565-2.414-.002-7.13-.01-14.26.004-21.389-.007-.673.038-1.396-.274-2.014-.445-.965-1.49-1.555-2.532-1.559-4.57-.006-9.14.005-13.709-.005-.478.001-.957 0-1.433.033z"/><path d="M4.166 3.43c.767-.065 1.539-.027 2.309-.033 4.084.001 8.168.004 12.252-.003.314-.013.787.01.897.382.076 1.356.035 2.718.025 4.076.067.308-.194.582-.48.612-.769.068-1.541.027-2.31.033-4.085 0-8.168-.004-12.252.004-.323.024-.765-.032-.9-.382-.071-1.357-.035-2.718-.021-4.076a.52.52 0 01.48-.614zm.676 1.14c0 .907-.003 1.813 0 2.72 4.549.005 9.1-.026 13.647.015.004-.912.004-1.824.002-2.735H4.842zM4.165 10.403c1.158-.074 2.32-.026 3.479-.034.322-.044.751.083.843.434.072 1.164.02 2.33.032 3.496-.03.279.06.648-.22.833-.151.165-.405.123-.6.152-1.069.023-2.14.02-3.21.005-.257.015-.565-.035-.724-.264-.145-.187-.044-.457-.092-.668.004-1.172-.021-2.345.011-3.518.026-.237.257-.408.481-.436zm.678 1.163c-.002.832-.003 1.664-.001 2.496.836 0 1.671.002 2.507 0 .002-.833.004-1.665-.002-2.498-.834.047-1.67.018-2.504.002zM9.766 10.403c1.25-.064 2.507-.05 3.76-.011.286.01.547.235.559.53.063 1.257.05 2.52.011 3.777-.01.288-.234.55-.528.562-1.252.064-2.508.05-3.76.012-.287-.01-.548-.236-.56-.531-.063-1.257-.049-2.52-.01-3.777.009-.288.233-.55.528-.562zm.678 1.162c0 .833.006 1.667-.038 2.499.828 0 1.657 0 2.486-.002.003-.83.006-1.66-.022-2.49a38.48 38.48 0 01-2.426-.007zM15.306 10.4c1.158-.067 2.32-.025 3.48-.03.308-.028.715.05.84.378.077 1.26.02 2.524.035 3.786a.58.58 0 01-.506.723c-1.171.074-2.349.042-3.521.026-.303.02-.71-.083-.788-.422-.067-1.26-.032-2.526-.022-3.787-.055-.305.175-.641.482-.674zm.678 1.168c-.001.832-.002 1.662 0 2.495h2.507c0-.83.003-1.66 0-2.489-.835-.005-1.672.036-2.507-.006zM4.223 15.908c.866-.062 1.735-.022 2.602-.037.491.019 1.018-.067 1.474.168.278.176.19.56.22.834 0 1.075.018 2.15-.012 3.225.048.29-.128.612-.423.669-1.059.082-2.123.014-3.184.043-.361-.02-.796.077-1.087-.205-.192-.193-.101-.5-.14-.74a424.947 424.947 0 010-3.227c-.089-.354.195-.725.55-.73zm.619 1.201c0 .84-.002 1.68 0 2.52H7.35v-2.52H4.842zM9.824 15.91c1.158-.064 2.32-.036 3.478-.028.308.014.717.092.766.458.104 1.189.042 2.39.044 3.584.029.329-.091.808-.485.847-1.274.064-2.552.034-3.828.023-.292-.005-.532-.256-.55-.545-.065-1.256-.049-2.52-.012-3.776.005-.315.284-.555.587-.564zm.592 1.199c.037.839.025 1.68.026 2.52h2.45V17.11c-.826 0-1.651-.003-2.476-.001zM15.378 15.914c1.173-.075 2.35-.031 3.524-.036.297-.021.532.187.763.343-.03 1.37.027 2.741-.017 4.111-.02.243-.246.422-.48.438-1.255.067-2.514.032-3.77.027a.597.597 0 01-.572-.7 88.452 88.452 0 010-3.516c-.078-.354.223-.648.552-.667zm.605 1.195v2.52h2.509v-2.52h-2.509zM4.224 21.358a41.786 41.786 0 013.744 0c.329.017.612.331.54.673a98.166 98.166 0 01.001 3.517c.078.424-.351.769-.75.693a82.004 82.004 0 01-3.5-.002c-.316-.012-.65-.28-.575-.634-.02-1.269-.025-2.54 0-3.809.027-.261.297-.424.54-.438zm.618 1.2c0 .829-.003 1.657 0 2.486.835-.015 1.672.019 2.507-.028l.002-2.457c-.837 0-1.673-.002-2.509 0zM9.766 21.36c1.25-.063 2.507-.05 3.76-.011.286.01.547.235.559.53.063 1.257.05 2.52.011 3.777-.01.288-.234.55-.528.562-1.252.064-2.508.049-3.76.012-.287-.01-.548-.236-.56-.531-.063-1.257-.049-2.52-.01-3.777.009-.288.233-.55.528-.562zm.647 1.197c.036.82.03 1.64.03 2.46.816.052 1.633.002 2.45.037l-.001-2.495c-.827 0-1.653-.003-2.479-.002zM15.365 21.356c1.158-.06 2.32-.032 3.478-.024.258-.016.566.035.725.264.145.186.043.455.092.668-.005 1.172.022 2.345-.011 3.518-.042.342-.448.49-.749.458a83.885 83.885 0 01-3.5 0c-.337-.018-.65-.336-.575-.692a96.783 96.783 0 010-3.517c-.064-.332.21-.669.54-.675zm.618 1.203c0 .82 0 1.64.002 2.462.834.058 1.67-.026 2.505.037.003-.833.003-1.666.002-2.5h-2.509z"/></g><defs><clipPath id="sclip0_2_224"><path fill="#fff" d="M0 0h23.333v30H0z"/></clipPath></defs></svg></svg>